<?xml version="1.0" encoding="UTF-8"?>
<svg width="81px" height="77px" viewBox="0 0 81 77" version="1.1" xmlns="http://www.w3.org/2000/svg" xmlns:xlink="http://www.w3.org/1999/xlink">
    <title>js-soederpop-logo</title>
    <g id="Page-1" stroke="none" stroke-width="1" fill="none" fill-rule="evenodd">
        <g id="Group" transform="translate(0.518466, 0.000357)" fill-rule="nonzero">
            <g id="alphabet-letter-j-graffiti-by-Vexels">
                <path d="M68.8687699,33.5757471 C69.3786079,34.8991623 69.8439253,36.2044087 70.3805312,37.4849675 C81.2702053,63.4732533 86.2217089,90.2562539 82.5905693,118.006504 C81.8735229,123.486015 79.8907578,129.078561 77.2089765,134.046846 C70.3086879,146.830799 58.7230488,153.03221 42.8506651,152.53527 C31.8184139,152.189923 22.0582612,148.795256 13.3069665,142.921162 C8.20872498,139.499173 4.55386875,134.989131 2.69953406,129.372314 C0.3739182,122.327784 2.16070906,116.719565 8.54977278,112.187749 C15.3757216,107.345813 23.2590712,104.883168 31.8436561,104.207591 C40.3991153,103.534233 41.6321023,101.977119 39.8272812,94.3640837 C36.5643734,80.6006763 33.1357266,66.8645915 30.2532555,53.0348885 C29.2402368,48.1745066 29.3431475,43.0657244 29.4954332,38.0845404 C29.5708825,35.6156539 29.0281741,34.0608976 26.9786974,32.3803461 C20.384367,26.9730951 19.5983898,20.0714195 25.4300436,13.7034372 C28.4541209,10.401279 32.4490541,7.39370627 36.685869,5.53396253 C48.1472385,0.502987463 59.9220558,0.886059447 71.1886993,6.28845622 C74.4277519,7.8416869 77.4375437,10.1949028 79.8089285,12.7510276 C84.3634907,17.660507 83.7393691,23.5623398 78.3735875,27.7933296 C75.5876472,29.9903764 72.2151714,31.5727328 68.8687699,33.5757471 Z M46.0353497,110.552966 C43.2126556,106.713925 39.2118973,106.038071 35.1233459,106.587852 C29.4911337,107.34512 23.6005351,107.934291 18.4437648,109.927458 C3.06984623,115.869928 1.01593131,126.703292 13.0879691,137.260656 C22.5130378,145.503223 34.1807835,148.799972 47.1270077,148.301784 C57.1121216,147.917602 64.7970005,143.643756 70.4581997,136.233352 C75.5220451,129.604764 78.1031348,122.186316 78.598826,114.20283 C79.2852211,103.147139 79.3444433,92.1168298 77.4716624,81.0973384 C74.8657466,65.7644731 72.3229364,50.4587918 64.748735,36.2949757 C64.0298856,34.9506177 64.0253087,33.2907315 63.6690046,31.6868777 C66.4186071,30.3692876 68.8217528,29.3643131 71.0624881,28.1181502 C79.7229384,23.3015956 80.035554,16.9297299 71.7397294,11.4632566 C64.8506749,6.92367334 56.9449957,5.11080807 48.5285075,5.70233667 C40.7350314,6.25003807 33.9322444,9.07300952 28.8789397,14.6476639 C22.3711542,21.8270042 24.9315785,29.2249259 34.7065713,31.8879835 C36.6792118,32.4254216 38.6915186,32.8423348 42.2415224,33.6835121 C38.5830601,34.601803 36.5321964,35.1164953 34.169272,35.7095496 C32.83171,39.9146037 33.0061866,44.1197965 33.8518021,48.253146 C37.5601941,66.3777766 41.4074185,84.4791067 45.2571393,102.84021 C47.6332397,103.548519 50.2404038,104.325758 52.8474291,105.102859 C52.8073467,105.404518 52.7674029,105.706315 52.7273204,106.007974 C50.6559301,106.304779 48.5845398,106.601722 46.3569803,106.920856 C46.2378425,108.266462 46.1365961,109.409714 46.0353497,110.552966 Z" id="Shape" fill="#000000"></path>
                <path d="M70.434483,0.319911787 C76.7805517,-1.13359813 79.645686,2.65939702 82.9492311,5.78943631 C82.6908448,6.17209221 82.4324584,6.55488681 82.1742108,6.93754271 C78.2609682,4.73161951 74.3477256,2.5256963 70.434483,0.319911787 Z" id="Path" fill="#000000"></path>
                <path d="M46.0353497,110.552966 C46.1365961,109.409714 46.2378425,108.266324 46.357119,106.920995 C48.5846785,106.60186 50.6560688,106.304917 52.7274591,106.008113 C52.7675416,105.706454 52.8076241,105.404657 52.8475678,105.102998 C50.2404038,104.325758 47.6333784,103.548658 45.257278,102.840349 C41.4076959,84.4792454 37.5604715,66.378054 33.8519408,48.2532847 C33.0061866,44.1199352 32.83171,39.9147424 34.1694107,35.7096883 C36.5323351,35.116634 38.5831988,34.601803 42.241661,33.6836508 C38.6916573,32.8424735 36.6793504,32.4254216 34.70671,31.8881222 C24.9317172,29.2250646 22.3712929,21.8271429 28.8790784,14.6478026 C33.9323831,9.07314821 40.7351701,6.25017676 48.5286462,5.70247536 C56.9449957,5.11094676 64.8508136,6.92395073 71.7398681,11.4633953 C80.0356927,16.9298686 79.7230771,23.3017343 71.0626268,28.1182889 C68.8218915,29.3644518 66.4187458,30.3694263 63.6691433,31.6870164 C64.0254474,33.2908702 64.0298856,34.9507564 64.7488737,36.2951143 C72.3230751,50.4589305 74.8658853,65.7644731 77.4718011,81.0974771 C79.344582,92.1169685 79.2853598,103.147278 78.5989647,114.202968 C78.1032735,122.186455 75.5221838,129.604903 70.4583384,136.233491 C64.7971391,143.644034 57.1122602,147.91788 47.1271464,148.301923 C34.1809222,148.80011 22.5131765,145.503361 13.0881078,137.260795 C1.01607,126.703431 3.06998492,115.870067 18.4439035,109.927597 C23.6006738,107.93443 29.4912724,107.345259 35.1234846,106.587991 C39.2118973,106.038209 43.2126556,106.713925 46.0353497,110.552966 Z M65.2702233,17.3617608 C63.4186625,18.7097248 61.8075966,19.5969483 60.1533969,21.1216081 C59.5618683,21.666813 59.2719985,23.2631775 59.7058323,23.7674677 C60.393753,24.5671756 62.1048172,25.5147309 62.8573691,25.2344309 C65.420706,24.2795248 67.957691,23.0450123 70.111188,21.4719484 C71.8383406,20.2102519 71.7162902,17.5426173 71.0297564,16.7617718 C69.5449017,15.0724826 67.1252515,15.5430704 65.495878,17.1169664 L65.2702233,17.3617608 Z M71.5997875,119.662368 C71.4609551,118.772093 71.587305,117.22982 70.9348899,116.040521 C70.2401732,114.774248 68.9937329,113.23766 67.6571418,112.899248 C65.3975441,112.327136 64.799913,114.267322 64.5540091,115.91001 C63.8813447,120.405628 60.6515846,123.356197 57.3847934,126.422715 C55.1261665,128.543064 53.0949974,130.985738 51.5521687,133.574733 C50.3501105,135.591894 50.8305454,137.941365 52.9151117,139.613595 C55.0404538,141.318556 57.379523,141.054484 59.6768453,139.901523 C60.6366057,139.41984 61.6120385,138.889336 62.3973222,138.207102 C68.0492289,133.296652 71.5211481,127.4478 71.5997875,119.662368 Z" id="Shape" fill="#31BBDB"></path>
                <path d="M71.0794087,16.2438896 C69.1467121,14.3934383 66.6316406,15.96567 64.9881204,17.4774313 C64.1015903,18.1047429 63.2028551,18.7148564 62.3276979,19.3581178 C61.8937254,19.6771133 61.4655779,20.004153 61.0489421,20.3454782 C60.6937475,20.6364576 60.3022152,20.9008078 60.0214992,21.2700104 C59.5919648,21.8347711 59.3489735,22.626296 59.5423125,23.3322469 C59.7144313,23.960668 60.2442412,24.4161381 60.7929135,24.7234834 C61.3851356,25.0551 62.1354685,25.3481598 62.8224183,25.2269415 C63.4914767,25.1089131 64.1691341,24.7293085 64.7875693,24.4567754 C65.9541219,23.9424992 67.1314927,23.3952138 68.2144131,22.7183886 C68.8654413,22.3324041 69.4999649,21.9185421 70.111188,21.4720871 C71.838618,20.2101132 73.0186239,18.100166 71.0794087,16.2438896 Z M61.2747354,22.5777532 C61.1866649,22.3195056 61.2347916,22.0835876 61.3716823,21.8028715 C61.7160587,21.0966433 62.2856737,20.5341016 62.8183962,19.9696183 C63.8205968,18.9076407 65.1362452,17.9345657 66.4703399,17.340818 C68.3863933,16.4879905 69.29345,16.5856309 70.6317055,17.405588 C70.7948093,17.5054474 70.9626286,17.6295783 71.0156096,17.8133474 C71.0548599,17.9492673 71.0235152,18.095173 70.9817684,18.2302607 C70.8142264,18.7721369 70.4828871,19.2500754 70.1066111,19.6744781 C69.4107849,20.4596231 68.5549061,21.0855478 67.6794715,21.6637618 C66.4597992,22.4694334 65.1566332,23.2072839 63.7205987,23.4806492 C63.1978622,23.5800925 62.6430874,23.6137951 62.1458705,23.4239234 C61.8367222,23.3058951 61.5572545,23.0878686 61.3836099,22.8043787 C61.3356219,22.7258781 61.2997003,22.6508448 61.2747354,22.5777532 Z" id="Shape" fill="#000000"></path>
            </g>
            <g id="alphabet-letter-s-graffiti-by-Vexels" transform="translate(57.906400, 23.559828)">
                <path d="M25.6946186,80.9245402 C26.34816,80.3796763 26.236757,79.3415052 25.4832823,78.9462007 C24.1328195,78.2378095 23.0211746,77.6641013 21.9529099,77.0187363 C18.8001265,75.1139841 15.4039827,73.4808689 12.6072118,71.1397032 C-3.27230984,57.8457297 -4.31877092,35.7939614 10.4217378,19.3345992 C24.8298545,3.24646671 43.5423729,-1.61676669 64.3500846,0.44833312 C68.4707451,0.8572649 72.6719201,2.62733423 76.3813777,4.61680266 C90.1105155,11.9804137 94.0547028,26.2740614 86.4605637,39.9019031 C85.8205361,41.0504552 85.1850509,42.201392 84.5981696,43.2619346 C84.4258982,43.5733179 84.4040945,43.9440933 84.534235,44.275236 C84.6783434,44.6418097 84.7752106,44.9257112 84.9562262,44.997368 C98.249632,50.2563601 102.192457,61.5237309 102.091728,74.1440629 C101.885275,100.020666 74.8400194,127.267606 47.5557186,124.755077 C39.9414793,124.053954 32.5322169,122.386089 26.0483599,118.072716 C19.7418847,113.877333 15.7288796,108.13196 15.1791327,100.359531 C14.7055849,93.6637701 17.2736447,88.2267149 22.2423759,83.8463413 C23.3072338,82.9076492 24.401731,82.002344 25.6946186,80.9245402 Z M41.7634458,44.9367266 C41.132503,44.0024634 42.0699459,42.7970175 43.1408225,43.1492825 C44.5707778,43.6197641 45.6936652,43.990426 46.7983829,44.4093511 C49.7006515,45.5102077 52.540689,46.7831087 55.467941,47.8089017 C62.5800153,50.301103 69.2724831,49.0857773 75.5319442,45.1537409 C88.1493236,37.2280049 89.1656912,19.8508458 77.5818269,10.5793028 C73.3865571,7.22142896 68.5613665,5.16848014 63.2868166,4.42976833 C47.9969016,2.28858291 33.9182242,5.63214813 21.2486069,14.4388875 C11.0976505,21.4949764 5.38384814,31.2765201 4.12162189,43.6215811 C3.46081266,50.0849972 4.95640598,55.9469962 8.80349898,61.2059883 C14.1892248,68.5682366 21.4197428,73.3398266 30.152327,75.5368838 C39.8081591,77.9663997 49.6291083,79.1439097 59.6066577,77.384288 C61.8921786,76.9812613 64.2436783,76.824207 66.5655387,76.817734 C66.8744235,76.8169391 67.183422,76.8993841 67.4926475,77.0240737 C68.3954544,77.388149 68.4999302,78.6409497 67.6690072,79.1481114 C66.4330134,79.9024946 65.2019028,80.2963228 63.9421749,80.5446799 C54.9209195,82.3237205 45.8661638,82.9042424 36.7219223,81.3678808 C34.8728147,81.057179 32.7652433,81.0131174 31.0166369,81.5826239 C19.777202,85.2429097 15.1409763,98.6426082 22.0314938,108.237912 C24.2145831,111.277817 27.3557833,114.102069 30.6885603,115.753127 C39.7871504,120.260348 49.5254275,121.777858 59.5859896,119.401602 C78.4429571,114.947755 95.5358739,95.8253964 97.4226836,76.4602452 C98.3881759,66.5507187 95.7137099,57.5444534 87.7567446,50.7899815 C83.5649951,47.2316731 81.5730284,46.8841776 76.7693007,49.6751569 C64.7051887,56.6842317 53.2185323,53.2599249 42.0777816,45.2738881 C41.9594514,45.1891719 41.8594045,45.0787909 41.7634458,44.9367266 Z" id="Shape" fill="#000000"></path>
                <path d="M5.44165049,17.7844968 C5.68784991,16.7267932 6.7259075,15.0778931 6.9387201,14.7844524 C7.98824731,13.3375766 9.32383372,12.1183899 10.7067749,10.9972059 C12.6734177,9.40281484 14.7583906,7.95446274 16.938868,6.66782096 C17.2644463,6.47567639 17.6165977,6.28091994 17.9941868,6.30158797 C18.3716623,6.322256 18.7554972,6.6581683 18.6791844,7.02848947 C18.6378484,7.2293782 18.4796584,7.38234435 18.3293042,7.52179679 C14.4867536,11.0865781 10.6373894,14.6440915 6.78132508,18.19411 C6.54625461,18.4104429 6.28915337,18.6374506 5.97209213,18.6764019 C5.40462973,18.7462417 5.31003374,18.3498016 5.44165049,17.7844968 Z" id="Path" fill="#000000"></path>
                <path d="M43.0961932,43.1345196 C42.0398524,42.7870241 41.1352285,43.9639664 41.7382354,44.8983431 C41.8420298,45.0592585 41.9491174,45.1816769 42.0778952,45.2738881 C53.2185323,53.2599249 64.7051887,56.6842317 76.7693007,49.6748162 C81.5730284,46.8838369 83.5649951,47.2313324 87.7567446,50.7896408 C95.7138234,57.5441127 98.3882895,66.550378 97.4226836,76.4599045 C95.5358739,95.8250558 78.4430706,114.947414 59.5859896,119.401262 C49.5255411,121.777518 39.7871504,120.260121 30.6885603,115.752786 C27.3557833,114.101728 24.2145831,111.277476 22.0314938,108.237572 C15.1408627,98.6422675 19.777202,85.242569 31.0166369,81.5822833 C32.7652433,81.0127768 34.8728147,81.0568383 36.7219223,81.3675401 C45.8661638,82.9039017 54.9209195,82.3233798 63.9421749,80.5443392 C65.2111012,80.2941652 66.450956,79.8963623 67.6961482,79.1311909 C68.5141253,78.6284581 68.4099902,77.401322 67.5221733,77.0357704 C67.2031815,76.9043808 66.8841898,76.8165984 66.5655387,76.8173934 C64.2436783,76.8238663 61.8921786,76.9809206 59.6066577,77.3839473 C49.6291083,79.1436826 39.8081591,77.966059 30.152327,75.5365432 C21.4197428,73.3393724 14.1892248,68.5678959 8.80349898,61.2056476 C4.95640598,55.9466555 3.46081266,50.0846565 4.12162189,43.6212404 C5.38384814,31.2761794 11.0976505,21.4946357 21.2486069,14.4385468 C33.9182242,5.63214813 47.9969016,2.28846935 63.2868166,4.42976833 C68.5613665,5.16848014 73.3865571,7.22154252 77.5818269,10.5793028 C89.1655776,19.8508458 88.1493236,37.2280049 75.5319442,45.1538545 C69.2724831,49.0858908 62.5800153,50.3012166 55.467941,47.8090153 C52.5405754,46.7831087 49.7006515,45.5102077 46.7983829,44.4094647 C45.6821956,43.9859971 44.5474979,43.612042 43.0961932,43.1345196 Z M88.2905931,83.0108758 C88.252096,79.8222073 86.9427421,77.4699127 84.7475018,76.9841003 C81.8417128,76.340893 79.8818837,77.9023515 78.5238122,80.1969573 C77.4474847,82.015517 76.6154261,83.9914717 75.8008558,85.9498246 C73.8478403,90.6454425 71.5548243,95.0548877 67.206929,98.0731017 C66.1179963,98.8290747 65.0683555,99.8404456 64.4195837,100.974235 C63.8029496,102.052039 63.0827481,103.966557 63.5734435,104.577967 C64.3634848,105.562311 66.0896061,105.847462 67.466415,106.281717 C67.9710784,106.440929 68.6134908,106.218805 69.1819753,106.111717 C78.477366,104.359931 88.4033587,92.3543026 88.2905931,83.0108758 Z" id="Shape" fill="#31BBDB"></path>
            </g>
        </g>
    </g>
</svg>