<?xml version="1.0" encoding="UTF-8"?>
<svg width="265px" height="234px" viewBox="0 0 265 234" version="1.1" xmlns="http://www.w3.org/2000/svg" xmlns:xlink="http://www.w3.org/1999/xlink">
    <title>Untitled 3</title>
    <g id="Page-1" stroke="none" stroke-width="1" fill="none" fill-rule="evenodd">
        <g id="alphabet-letter-j-graffiti-by-Vexels" transform="translate(9.518466, 0.000357)" fill-rule="nonzero">
            <path d="M105.232141,51.3040635 C106.011178,53.3262547 106.722188,55.3206836 107.542127,57.2773899 C124.181653,96.9877397 131.747598,137.912421 126.199182,180.31507 C125.103528,188.687815 122.073844,197.233278 117.976057,204.824866 C107.432349,224.358868 89.7293817,233.834684 65.4762271,233.075356 C48.6188415,232.547662 33.7052346,227.360578 20.3331724,218.384906 C12.5430105,213.156073 6.95835513,206.264687 4.12491394,197.682136 C0.571350595,186.918027 3.30158417,178.348615 13.0641348,171.423956 C23.4942501,164.025432 35.5400839,160.262487 48.6574119,159.230199 C61.7302356,158.201301 63.6142515,155.822016 60.8564676,144.189225 C55.8707132,123.158606 50.6317079,102.169737 46.2272645,81.0378181 C44.6793622,73.6111081 44.8366108,65.8048399 45.0693047,58.1935429 C45.1845921,54.4210608 44.3553284,52.0453782 41.2237083,49.4774794 C31.1475083,41.2151479 29.9465276,30.6693214 38.8573505,20.9389834 C43.4781696,15.8932541 49.5824658,11.2976541 56.0563597,8.45594781 C73.5694422,0.768569667 91.5614759,1.35390733 108.777015,9.60882141 C113.726319,11.9821728 118.325309,15.5779093 121.948808,19.4836924 C128.908223,26.985424 127.954559,36.0034811 119.755593,42.4684741 C115.49865,45.8255827 110.345474,48.2434384 105.232141,51.3040635 Z M70.3424558,168.925993 C66.0293522,163.059901 59.9161551,162.027189 53.6688093,162.867261 C45.062735,164.024373 36.0618439,164.924631 28.1822495,167.97021 C4.69075447,177.050361 1.55235278,193.603846 19.9985424,209.735599 C34.4001377,222.330319 52.228565,227.367784 72.0105197,226.606548 C87.2678694,226.019515 99.0104381,219.489037 107.660805,208.165869 C115.398409,198.037323 119.342339,186.701863 120.09976,174.503019 C121.148578,157.609818 121.23907,140.755399 118.377443,123.917511 C114.395579,100.488746 110.51014,77.1015177 98.9366881,55.4590709 C97.8382793,53.404879 97.8312857,50.868557 97.2868496,48.4178529 C101.488269,46.4045626 105.160298,44.8689519 108.584163,42.9648032 C121.817414,35.6050615 122.295094,25.8687896 109.618994,17.5159661 C99.0924532,10.5794393 87.0124994,7.80936373 74.1520249,8.71322512 C62.2435187,9.55011811 51.8487949,13.8636456 44.1272968,22.3817709 C34.1833381,33.3518718 38.095691,44.655967 53.0319738,48.7251446 C56.0461873,49.5463551 59.1210114,50.1834026 64.5454512,51.4687295 C58.9552858,52.8718869 55.8215465,53.6583416 52.2109752,54.5645342 C50.1671677,60.9898972 50.4337697,67.4154721 51.7258782,73.7312698 C57.3923368,101.425879 63.2709325,129.084885 69.1533429,157.140827 C72.7840471,158.22313 76.7678188,159.410759 80.7513785,160.598177 C80.6901321,161.059114 80.6290976,161.520263 80.5678512,161.981201 C77.4027469,162.434721 74.2376427,162.888453 70.8339105,163.376093 C70.6518667,165.432192 70.4971612,167.179093 70.3424558,168.925993 Z" id="Shape" fill="#000000"></path>
            <path d="M-1.20465583e-14,176.513554 C3.21257554,164.939254 10.1719903,156.599782 23.3102989,154.253981 C23.9164053,154.919638 24.5225116,155.585296 25.128618,156.250953 C20.4355323,159.071679 15.3294043,161.469613 11.1648603,164.831384 C6.95771935,168.228335 3.68326162,172.580009 -1.20465583e-14,176.513554 Z" id="Path" fill="#000000"></path>
            <path d="M107.624566,0.488828278 C117.321419,-1.73214881 121.699372,4.06358415 126.747221,8.8463142 C126.352404,9.43101609 125.957587,10.0159299 125.562982,10.6006318 C119.58351,7.22995998 113.604038,3.85928817 107.624566,0.488828278 Z" id="Path" fill="#000000"></path>
            <path d="M70.3424558,168.925993 C70.4971612,167.179093 70.6518667,165.431981 70.8341224,163.376305 C74.2378546,162.888665 77.4029589,162.434933 80.5680631,161.981413 C80.6293096,161.520475 80.690556,161.059326 80.7515905,160.598388 C76.7678188,159.410759 72.784259,158.223342 69.1535548,157.141039 C63.2713564,129.085097 57.3927606,101.426303 51.7260902,73.7314817 C50.4337697,67.4156841 50.1671677,60.9901091 52.2111872,54.5647461 C55.8217584,53.6585535 58.9554977,52.8718869 64.5456632,51.4689414 C59.1212233,50.1836145 56.0463992,49.5463551 53.0321858,48.7253565 C38.0959029,44.656179 34.18355,33.3520837 44.1275087,22.3819828 C51.8490068,13.8638575 62.2437306,9.55033003 74.1522368,8.71343704 C87.0124994,7.80957566 99.0926651,10.5798631 109.619206,17.516178 C122.295306,25.8690016 121.817626,35.6052735 108.584375,42.9650151 C105.16051,44.8691639 101.488481,46.4047746 97.2870616,48.4180649 C97.8314977,50.868769 97.8382793,53.4050909 98.9369,55.4592828 C110.510352,77.1017297 114.395791,100.488746 118.377655,123.917723 C121.239282,140.755611 121.14879,157.61003 120.099972,174.503231 C119.342551,186.702075 115.398621,198.037535 107.661017,208.16608 C99.01065,219.489461 87.2680813,226.019939 72.0107317,226.60676 C52.228777,227.367996 34.4003496,222.330531 19.9987543,209.735811 C1.55256471,193.604058 4.6909664,177.050573 28.1824615,167.970422 C36.0620559,164.924843 45.062947,164.024585 53.6690213,162.867473 C59.9161551,162.027401 66.0293522,163.059901 70.3424558,168.925993 Z M99.7335272,26.5289369 C96.9043245,28.5886389 94.4426003,29.944325 91.9149673,32.2740198 C91.0111059,33.1070981 90.568182,35.5463582 91.2310844,36.3169186 C92.2822338,37.5388799 94.8967562,38.9867535 96.0466628,38.5584524 C99.9634661,37.0993468 103.840004,35.2129997 107.130568,32.8093431 C109.769673,30.8814586 109.583179,26.8052875 108.534149,25.6121481 C106.265277,23.030898 102.568028,23.7499606 100.07833,26.1548888 L99.7335272,26.5289369 Z M109.405162,182.845246 C109.193025,181.484898 109.386089,179.128289 108.389192,177.311029 C107.327658,175.376151 105.423086,173.028231 103.380761,172.511133 C99.9280746,171.636941 99.0148885,174.601564 98.639145,177.111607 C97.6113073,183.980954 92.6762029,188.489453 87.6845145,193.175121 C84.2333111,196.415035 81.1296652,200.147463 78.7722082,204.103473 C76.9354517,207.185714 77.6695609,210.775729 80.8547981,213.330912 C84.1023413,215.936109 87.6764614,215.532604 91.186792,213.770869 C92.653315,213.034852 94.1437856,212.224238 95.3437066,211.181777 C103.979874,203.678562 109.285,194.741461 109.405162,182.845246 Z" id="Shape" fill="#FF5949"></path>
            <path d="M109.405162,182.845246 C109.284788,194.741461 103.979874,203.678562 95.3439185,211.181565 C94.1439975,212.224238 92.6535269,213.03464 91.1870039,213.770657 C87.6766733,215.532392 84.1025532,215.936109 80.85501,213.3307 C77.6697728,210.775517 76.9356636,207.185502 78.7724201,204.103261 C81.1298771,200.147251 84.233523,196.414611 87.6847265,193.174909 C92.6762029,188.489241 97.6113073,183.980954 98.6393569,177.111395 C99.0151004,174.601352 99.9282865,171.636729 103.380973,172.510921 C105.423297,173.028019 107.328082,175.375939 108.389404,177.310817 C109.386301,179.128077 109.193025,181.484898 109.405162,182.845246 Z M101.774792,174.31716 C99.765316,180.099754 99.067446,184.442527 96.8155278,187.96409 C94.3169286,191.87178 90.2733939,194.939611 87.1515224,198.55103 C85.5112206,200.448609 83.9266552,202.605585 83.2304806,204.876788 C82.8076897,206.25621 83.694597,208.445398 84.8358147,209.555251 C85.476041,210.177887 88.0680993,209.741321 89.3784334,209.101095 C100.499637,203.666906 106.521494,188.408709 101.774792,174.31716 Z" id="Shape" fill="#000000"></path>
            <path d="M108.610018,24.8208191 C105.656839,21.9933118 101.813786,24.3956969 99.3024711,26.7056826 C97.9478446,27.6642207 96.5745687,28.5964801 95.2373201,29.5793896 C94.5742059,30.0668178 93.9199925,30.5665377 93.2833689,31.0880858 C92.7406282,31.5327051 92.1423631,31.9366347 91.7134263,32.5007798 C91.0570937,33.3637396 90.6858006,34.5731973 90.9812244,35.651897 C91.2442237,36.6121305 92.0537783,37.3080932 92.8921548,37.7777197 C93.7970758,38.284433 94.9435917,38.7322312 95.9932577,38.5470085 C97.0155853,38.3666601 98.0510523,37.7866205 98.9960272,37.3701873 C100.778531,36.5843683 102.577565,35.7481111 104.232277,34.7139157 C105.227055,34.1241276 106.196613,33.4917425 107.130568,32.809555 C109.770097,30.8812467 111.573158,27.6572272 108.610018,24.8208191 Z M93.6283833,34.4990234 C93.4938107,34.1044185 93.5673488,33.7439336 93.7765191,33.3149968 C94.3027296,32.2358732 95.1731068,31.3763042 95.9871118,30.5137683 C97.518484,28.8910563 99.5288073,27.4041884 101.567317,26.4969362 C104.495065,25.1938076 105.881056,25.343003 107.925923,26.5959053 C108.175147,26.7484915 108.431577,26.9381647 108.512533,27.2189657 C108.572507,27.4266525 108.524612,27.6495979 108.460823,27.8560131 C108.204817,28.6840053 107.698527,29.4142998 107.123574,30.0627912 C106.060345,31.2625003 104.752554,32.2189192 103.414881,33.1024357 C101.55121,34.3335098 99.5599604,35.4609523 97.3656859,35.8786571 C96.5669394,36.0306075 95.7192382,36.0821054 94.9594861,35.7919797 C94.4871046,35.6116312 94.0600751,35.2784847 93.7947446,34.8453094 C93.7214185,34.7253596 93.6665298,34.6107081 93.6283833,34.4990234 Z" id="Shape" fill="#000000"></path>
            <path d="M101.774792,174.31716 C106.521282,188.408497 100.499425,203.666906 89.3784334,209.101095 C88.0683113,209.741321 85.476041,210.177887 84.8358147,209.555251 C83.694597,208.44561 82.8079016,206.25621 83.2304806,204.876788 C83.9266552,202.605585 85.5110087,200.448609 87.1515224,198.55103 C90.2733939,194.939611 94.3169286,191.87178 96.8155278,187.96409 C99.0676579,184.442527 99.765316,180.099966 101.774792,174.31716 Z" id="Path" fill="#FFFFFF"></path>
        </g>
        <g id="alphabet-letter-s-graffiti-by-Vexels" transform="translate(98.000000, 36.000000)" fill-rule="nonzero">
            <path d="M39.2616236,123.653473 C40.2602411,122.820916 40.0900163,121.234581 38.9386997,120.630552 C36.8751796,119.548123 35.1765755,118.671492 33.5442568,117.685368 C28.7267735,114.774888 23.5374333,112.279472 19.2639406,108.702149 C-5.00012082,88.3888297 -6.59912338,54.6935163 15.9245152,29.543453 C37.9402558,4.96063226 66.5331633,-2.470435 98.3275464,0.685057307 C104.623955,1.30990899 111.043391,4.01459189 116.711478,7.05451874 C137.689732,18.306187 143.716488,40.1470177 132.11257,60.9704906 C131.134602,62.7254892 130.163575,64.4841317 129.266814,66.104651 C129.003582,66.5804475 128.970266,67.1469959 129.169122,67.6529852 C129.389321,68.2131133 129.537335,68.6469176 129.813928,68.7564098 C150.12638,76.7922002 156.151054,94.0088508 155.99714,113.292839 C155.681677,152.832537 114.356267,194.466122 72.6655941,190.626954 C61.0309634,189.555631 49.7095394,187.007118 39.8021438,180.416242 C30.1657891,174.005656 24.0338789,165.226672 23.1938603,153.350326 C22.4702747,143.119139 26.3942947,134.811266 33.9865636,128.118014 C35.6136767,126.683683 37.286079,125.300368 39.2616236,123.653473 Z M63.8149457,68.6637492 C62.8508591,67.2361861 64.2832808,65.3942531 65.9195905,65.9325175 C68.1045759,66.6514179 69.8203586,67.2177928 71.5083778,67.8579144 C75.9430722,69.5400338 80.2826766,71.4850387 84.7555458,73.0524603 C95.6228635,76.8605678 105.849018,75.0035384 115.413535,68.9953492 C134.693012,56.8847484 136.246031,30.3322827 118.545776,16.1652762 C112.135363,11.0344127 104.762425,7.89748721 96.7028626,6.76872849 C73.3397259,3.49697663 51.8273718,8.60597636 32.4680751,22.0627585 C16.9573165,32.84453 8.22657159,47.7908226 6.29787777,66.6541943 C5.28815494,76.5303559 7.57343587,85.4875467 13.4518309,93.5233371 C21.6812715,104.772923 32.7295724,112.063958 46.0730449,115.421083 C60.8272489,119.133406 75.8337535,120.932653 91.0795445,118.243934 C94.5718425,117.628106 98.1649565,117.388125 101.712781,117.378234 C102.18476,117.37702 102.656913,117.502996 103.129413,117.693523 C104.50891,118.249834 104.66855,120.164125 103.398892,120.939073 C101.510282,122.091778 99.6291327,122.693551 97.7042564,123.073043 C83.9196917,125.791434 70.0839381,126.678477 56.1114494,124.330902 C53.2859953,123.856147 50.0656059,123.78882 47.3937186,124.659032 C30.2197543,130.251984 23.135557,150.726851 33.6643338,165.388568 C37.0001152,170.033571 41.7998992,174.349056 46.8924144,176.871888 C60.7951474,183.758965 75.6753282,186.077735 91.0479636,182.446794 C119.861591,175.641272 145.979732,146.422125 148.862795,116.831988 C150.338076,101.690136 146.251467,87.9284766 134.093147,77.6075787 C127.688114,72.1704494 124.64437,71.639473 117.304228,75.9041161 C98.8701488,86.6140496 81.3184277,81.3816759 64.2952538,69.1789351 C64.1144442,69.0494879 63.9615716,68.8808248 63.8149457,68.6637492 Z" id="Shape" fill="#000000"></path>
            <path d="M154.734075,155.917406 C149.91451,172.522046 129.244083,189.212232 113.964802,189.051203 C122.178279,183.398734 129.627393,178.932458 136.289412,173.500361 C142.852697,168.148778 148.618303,161.818359 154.734075,155.917406 Z" id="Path" fill="#000000"></path>
            <path d="M8.31489414,27.1748817 C8.69108921,25.5587005 10.2772512,23.0391652 10.6024308,22.5907851 C12.2061185,20.379945 14.2469073,18.5170159 16.3600547,16.8038361 C19.3651037,14.3675912 22.5509623,12.1544953 25.8827527,10.1884944 C26.3802394,9.89489563 26.9183303,9.59730589 27.49529,9.62888684 C28.0720761,9.6604678 28.6585795,10.173745 28.5419729,10.7395993 C28.478811,11.0465592 28.2370953,11.280293 28.0073525,11.4933776 C22.1358984,16.9403976 16.254033,22.3763123 10.3619298,27.8007745 C10.0027398,28.1313333 9.60988666,28.4782032 9.12541405,28.5377212 C8.25832606,28.644437 8.11378247,28.0386727 8.31489414,27.1748817 Z" id="Path" fill="#000000"></path>
            <path d="M65.8513965,65.9099596 C64.2372976,65.3789832 62.8550236,67.1773622 63.7764239,68.6050988 C63.9350227,68.8509791 64.0986537,69.0380355 64.2954273,69.1789351 C81.3184277,81.3816759 98.8701488,86.6140496 117.304228,75.9035955 C124.64437,71.6389524 127.688114,72.1699289 134.093147,77.6070582 C146.25164,87.927956 150.33825,101.689616 148.862795,116.831467 C145.979732,146.421604 119.861764,175.640751 91.0479636,182.446273 C75.6755017,186.077215 60.7951474,183.758618 46.8924144,176.871367 C41.7998992,174.348535 37.0001152,170.03305 33.6643338,165.388048 C23.1353835,150.726331 30.2197543,130.251463 47.3937186,124.658511 C50.0656059,123.7883 53.2859953,123.855626 56.1114494,124.330382 C70.0839381,126.677957 83.9196917,125.790914 97.7042564,123.072523 C99.643188,122.690254 101.537698,122.082408 103.440364,120.913219 C104.69024,120.145038 104.531121,118.269962 103.174528,117.711396 C102.687106,117.510631 102.199683,117.376499 101.712781,117.377714 C98.1649565,117.387604 94.5718425,117.627585 91.0795445,118.243414 C75.8337535,120.932306 60.8272489,119.132886 46.0730449,115.420562 C32.7295724,112.063264 21.6812715,104.772403 13.4518309,93.5228165 C7.57343587,85.4870261 5.28815494,76.5298354 6.29787777,66.6536737 C8.22657159,47.790302 16.9573165,32.8440095 32.4680751,22.062238 C51.8273718,8.60597636 73.3397259,3.49680311 96.7028626,6.76872849 C104.762425,7.89748721 112.135363,11.0345862 118.545776,16.1652762 C136.245858,30.3322827 134.693012,56.8847484 115.413535,68.9955227 C105.849018,75.0037119 95.6228635,76.8607413 84.7555458,73.0526338 C80.2825031,71.4850387 75.9430722,69.5400338 71.5083778,67.8580879 C69.8028329,67.2110254 68.069004,66.6396184 65.8513965,65.9099596 Z M134.908873,126.841414 C134.850049,121.969098 132.849344,118.374769 129.494995,117.632444 C125.054922,116.649617 122.060284,119.03554 119.985138,122.54172 C118.340499,125.320496 117.069106,128.339774 115.824435,131.332156 C112.840208,138.507105 109.336458,145.24478 102.692832,149.85664 C101.028932,151.011774 99.4250712,152.557158 98.4337417,154.289599 C97.4915188,155.936494 96.3910441,158.861896 97.1408314,159.796137 C98.3480219,161.300223 100.985552,161.735936 103.089329,162.399483 C103.86046,162.642761 104.842072,162.303352 105.710722,162.139721 C119.914168,159.462975 135.08118,141.11826 134.908873,126.841414 Z" id="Shape" fill="#FF5949"></path>
            <path d="M134.908873,126.841414 C135.016109,135.723991 129.884205,144.371445 124.060643,150.724075 C118.500486,156.789353 108.467288,164.900799 99.6789335,161.415268 C99.3004826,161.265172 98.9294932,161.095641 98.5690886,160.906155 C98.0762869,160.647261 97.5879968,160.342557 97.2621231,159.891053 C96.1654659,158.371871 97.652894,155.654347 98.4339152,154.289426 C99.4250712,152.556985 101.029106,151.011427 102.693006,149.856466 C109.336631,145.24478 112.840382,138.506932 115.824608,131.331983 C117.069279,128.339427 118.340673,125.320323 119.985312,122.541546 C122.060284,119.035367 125.055095,116.649443 129.495169,117.63227 C132.849344,118.374769 134.850049,121.969098 134.908873,126.841414 Z M100.561118,155.940311 C99.8613048,156.877155 100.578644,158.218998 101.744709,158.129635 C111.307317,157.396505 121.726949,150.319769 126.286753,141.483003 C129.254147,135.73232 132.311947,129.727254 129.677367,123.048577 C129.159231,121.735191 127.640569,121.132897 126.341412,121.685217 C122.046403,123.510839 120.906191,127.310096 119.485569,130.759535 C116.179807,138.785781 112.09927,146.129914 104.711757,151.285765 C103.147112,152.377737 101.980872,154.040075 100.561118,155.940311 Z" id="Shape" fill="#000000"></path>
            <path d="M101.154215,158.166768 C100.217718,158.212925 99.6381558,157.163292 100.20401,156.415587 C101.790866,154.318404 103.018012,152.467795 104.711584,151.285591 C112.099097,146.129741 116.179633,138.785608 119.485396,130.759361 C121.025748,127.019101 122.236409,122.867594 127.496719,121.266856 C128.186468,121.056895 128.932438,121.398732 129.242521,122.049612 C132.615263,129.13086 129.40112,135.44705 126.286579,141.482829 C121.6329,150.501967 110.875075,157.687675 101.154215,158.166768 Z" id="Path" fill="#FFFFFF"></path>
        </g>
    </g>
</svg>