<?xml version="1.0" encoding="UTF-8"?>
<svg width="81px" height="77px" viewBox="0 0 81 77" version="1.1" xmlns="http://www.w3.org/2000/svg" xmlns:xlink="http://www.w3.org/1999/xlink">
    <title>js-soederpop-logo</title>
    <g id="Page-1" stroke="none" stroke-width="1" fill="none" fill-rule="evenodd">
        <g id="Group" transform="translate(0.518466, 0.000357)" fill-rule="nonzero">
            <g id="alphabet-letter-j-graffiti-by-Vexels">
                <path d="M34.434385,16.7878735 C34.689304,17.4495812 34.9219626,18.1022043 35.1902656,18.7424838 C40.6351026,31.7366266 43.1108544,45.1281269 41.2952846,59.0032521 C40.9367614,61.7430074 39.9453789,64.5392803 38.6044883,67.023423 C35.1543439,73.4153993 29.3615244,76.5161049 21.4253325,76.2676351 C15.9092069,76.0949615 11.0291306,74.3976281 6.65348324,71.4605811 C4.10436249,69.7495863 2.27693438,67.4945655 1.34976703,64.6861569 C0.1869591,61.1638919 1.08035453,58.3597827 4.27488639,56.0938745 C7.68786082,53.6729067 11.6295356,52.4415841 15.9218281,52.1037956 C20.1995577,51.7671167 20.8160511,50.9885596 19.9136406,47.1820418 C18.2821867,40.3003381 16.5678633,33.4322957 15.1266278,26.5174442 C14.6201184,24.0872533 14.6715737,21.5328622 14.7477166,19.0422702 C14.7854413,17.807827 14.5140871,17.0304488 13.4893487,16.1901731 C10.1921835,13.4865475 9.79919492,10.0357097 12.7150218,6.8517186 C14.2270605,5.20063951 16.224527,3.69685314 18.3429345,2.76698126 C24.0736193,0.251493732 29.9610279,0.443029723 35.5943497,3.14422811 C37.2138759,3.92084345 38.7187719,5.09745141 39.9044643,6.3755138 C42.1817454,8.83025349 41.8696846,11.7811699 39.1867937,13.8966648 C37.7938236,14.9951882 36.1075857,15.7863664 34.434385,16.7878735 Z M23.0176748,55.2764832 C21.6063278,53.3569625 19.6059486,53.0190353 17.5616729,53.2939262 C14.7455668,53.67256 11.8002675,53.9671454 9.22188242,54.9637289 C1.53492311,57.934964 0.507965655,63.3516462 6.54398457,68.6303282 C11.2565189,72.7516113 17.0903918,74.3999859 23.5635039,74.150892 C28.5560608,73.9588012 32.3985002,71.8218781 35.2290998,68.1166761 C37.7610226,64.8023822 39.0515674,61.0931581 39.299413,57.1014149 C39.6426106,51.5735696 39.6722217,46.0584149 38.7358312,40.5486692 C37.4328733,32.8822365 36.1614682,25.2293959 32.3743675,18.1474878 C32.0149428,17.4753088 32.0126544,16.6453658 31.8345023,15.8434388 C33.2093036,15.1846438 34.4108764,14.6821565 35.531244,14.0590751 C39.8614692,11.6507978 40.017777,8.46486495 35.8698647,5.73162832 C32.4253375,3.46183667 28.4724978,2.55540403 24.2642538,2.85116834 C20.3675157,3.12501903 16.9661222,4.53650476 14.4394698,7.32383193 C11.1855771,10.9135021 12.4657892,14.6124629 17.3532857,15.9439918 C18.3396059,16.2127108 19.3457593,16.4211674 21.1207612,16.841756 C19.29153,17.3009015 18.2660982,17.5582477 17.084636,17.8547748 C16.415855,19.9573018 16.5030933,22.0598982 16.9259011,24.126573 C18.780097,33.1888883 20.7037092,42.2395534 22.6285697,51.4201051 C23.8166199,51.7742594 25.1202019,52.1628791 26.4237146,52.5514295 C26.4036733,52.7022589 26.3837014,52.8531577 26.3636602,53.003987 C25.327965,53.1523893 24.2922699,53.3008609 23.1784902,53.460428 C23.1189212,54.1332311 23.068298,54.7048572 23.0176748,55.2764832 Z" id="Shape" fill="#000000"></path>
                <path d="M-3.94191188e-15,57.7593084 C1.05122886,53.9719303 3.32850997,51.2430626 7.62766775,50.4754623 C7.82599973,50.6932808 8.02433172,50.9110992 8.2226637,51.1289176 C6.68697777,52.0519242 5.01613484,52.8365838 3.65339995,53.9366328 C2.27672634,55.0481934 1.2052482,56.4721616 -3.94191188e-15,57.7593084 Z" id="Path" fill="#000000"></path>
                <path d="M35.2172415,0.159955893 C38.3902759,-0.566799064 39.822843,1.32969851 41.4746156,2.89471816 C41.3454224,3.08604611 41.2162292,3.2774434 41.0871054,3.46877136 C39.1304841,2.36580975 37.1738628,1.26284815 35.2172415,0.159955893 Z" id="Path" fill="#000000"></path>
                <path d="M23.0176748,55.2764832 C23.068298,54.7048572 23.1189212,54.1331618 23.1785595,53.4604973 C24.2923392,53.3009302 25.3280344,53.1524586 26.3637296,53.0040564 C26.3837708,52.853227 26.403812,52.7023283 26.4237839,52.5514989 C25.1202019,52.1628791 23.8166892,51.7743288 22.628639,51.4201744 C20.7038479,42.2396227 18.7802357,33.189027 16.9259704,24.1266423 C16.5030933,22.0599676 16.415855,19.9573712 17.0847053,17.8548441 C18.2661676,17.558317 19.2915994,17.3009015 21.1208305,16.8418254 C19.3458286,16.4212368 18.3396752,16.2127108 17.353355,15.9440611 C12.4658586,14.6125323 11.1856464,10.9135715 14.4395392,7.32390128 C16.9661916,4.53657411 20.3675851,3.12508838 24.2643231,2.85123768 C28.4724978,2.55547338 32.4254068,3.46197536 35.869934,5.73169767 C40.0178464,8.4649343 39.8615386,11.6508671 35.5313134,14.0591445 C34.4109457,14.6822259 33.2093729,15.1847131 31.8345717,15.8435082 C32.0127237,16.6454351 32.0149428,17.4753782 32.3744369,18.1475572 C36.1615375,25.2294652 37.4329426,32.8822365 38.7359005,40.5487385 C39.672291,46.0584842 39.6426799,51.573639 39.2994824,57.1014842 C39.0516367,61.0932274 37.7610919,64.8024516 35.2291692,68.1167454 C32.3985696,71.8220168 28.5561301,73.9589399 23.5635732,74.1509613 C17.0904611,74.4000552 11.2565883,72.7516807 6.54405392,68.6303975 C0.508035002,63.3517155 1.53499246,57.9350333 9.22195177,54.9637983 C11.8003369,53.9672148 14.7456362,53.6726293 17.5617423,53.2939956 C19.6059486,53.0191047 21.6063278,53.3569625 23.0176748,55.2764832 Z M32.6351117,8.68088038 C31.7093313,9.35486239 30.9037983,9.79847417 30.0766984,10.5608041 C29.7809341,10.8334065 29.6359992,11.6315887 29.8529162,11.8837339 C30.1968765,12.2835878 31.0524086,12.7573654 31.4286846,12.6172155 C32.710353,12.1397624 33.9788455,11.5225061 35.055594,10.7359742 C35.9191703,10.1051259 35.8581451,8.77130867 35.5148782,8.38088592 C34.7724508,7.53624132 33.5626257,7.77153518 32.747939,8.5584832 L32.6351117,8.68088038 Z M35.7998937,59.8311841 C35.7304775,59.3860467 35.7936525,58.6149098 35.4674449,58.0202606 C35.1200866,57.3871239 34.4968665,56.6188301 33.8285709,56.4496238 C32.6987721,56.1635681 32.3999565,57.1336611 32.2770046,57.9550052 C31.9406723,60.2028139 30.3257923,61.6780987 28.6923967,63.2113575 C27.5630833,64.2715321 26.5474987,65.4928688 25.7760844,66.7873664 C25.1750552,67.7959469 25.4152727,68.9706825 26.4575558,69.8067974 C27.5202269,70.6592782 28.6897615,70.5272418 29.8384227,69.9507615 C30.3183029,69.7099199 30.8060192,69.4446682 31.1986611,69.1035511 C34.0246144,66.6483259 35.7605741,63.7239001 35.7998937,59.8311841 Z" id="Shape" fill="#31BBDB"></path>
                <path d="M35.7998937,59.8311841 C35.7605047,63.7239001 34.0246144,66.6483259 31.1987304,69.1034817 C30.8060886,69.4446682 30.3183722,69.7098506 29.838492,69.9506922 C28.6898308,70.5271725 27.5202963,70.6592782 26.4576252,69.8067281 C25.4153421,68.9706132 25.1751246,67.7958776 25.7761537,66.787297 C26.547568,65.4927994 27.5631526,64.2713934 28.692466,63.2112882 C30.3257923,61.6780294 31.9406723,60.2028139 32.2770739,57.9549358 C32.4000259,57.1335918 32.6988414,56.1634987 33.8286403,56.4495545 C34.4969358,56.6187608 35.1202253,57.3870545 35.4675143,58.0201912 C35.7937219,58.6148404 35.7304775,59.3860467 35.7998937,59.8311841 Z M33.3030605,57.0405977 C32.6455137,58.9327957 32.4171545,60.3538513 31.6802749,61.5061879 C30.8626756,62.7848744 29.5395378,63.7887394 28.5179894,64.970479 C27.9812448,65.5914106 27.4627384,66.2972229 27.234934,67.040413 C27.096587,67.4917916 27.3868036,68.2081446 27.7602364,68.571314 C27.9697332,68.7750551 28.8179145,68.6322005 29.246686,68.4227037 C32.8858005,66.6445119 34.8562912,61.6516776 33.3030605,57.0405977 Z" id="Shape" fill="#000000"></path>
                <path d="M35.5397044,8.1219448 C34.573356,7.19671916 33.3158203,7.98283502 32.4940602,8.73871565 C32.0507951,9.05237144 31.6014276,9.35742822 31.163849,9.6790589 C30.9468627,9.83855665 30.732789,10.0020765 30.524471,10.1727391 C30.3468738,10.3182288 30.1511076,10.4504039 30.0107496,10.6350052 C29.7959824,10.9173855 29.6744867,11.313148 29.7711562,11.6661235 C29.8572157,11.980334 30.1221206,12.2080691 30.3964568,12.3617417 C30.6925678,12.52755 31.0677342,12.6740799 31.4112092,12.6134707 C31.7457384,12.5544566 32.084567,12.3646542 32.3937846,12.2283877 C32.977061,11.9712496 33.5657464,11.6976069 34.1072065,11.3591943 C34.4327206,11.166202 34.7499825,10.959271 35.055594,10.7360435 C35.919309,10.1050566 36.509312,9.050083 35.5397044,8.1219448 Z M30.6373677,11.2888766 C30.5933324,11.1597528 30.6173958,11.0417938 30.6858411,10.9014358 C30.8580294,10.5483216 31.1428369,10.2670508 31.4091981,9.98480915 C31.9102984,9.45382034 32.5681226,8.96728286 33.2351699,8.67040901 C34.1931966,8.24399525 34.646725,8.29281543 35.3158527,8.70279399 C35.3974046,8.75272372 35.4813143,8.81478914 35.5078048,8.90667372 C35.52743,8.97463363 35.5117576,9.04758651 35.4908842,9.11513034 C35.4071132,9.38606847 35.2414436,9.62503771 35.0533056,9.83723906 C34.7053924,10.2298116 34.277453,10.5427739 33.8397357,10.8318809 C33.2298996,11.2347167 32.5783166,11.6036419 31.8602993,11.7403246 C31.5989311,11.7900463 31.3215437,11.8068976 31.0729352,11.7119617 C30.9183611,11.6529476 30.7786272,11.5439343 30.691805,11.4021894 C30.667811,11.362939 30.6498501,11.3254224 30.6373677,11.2888766 Z" id="Shape" fill="#000000"></path>
                <path d="M33.3030605,57.0405977 C34.8562218,61.6516082 32.8857312,66.6445119 29.246686,68.4227037 C28.8179838,68.6322005 27.9697332,68.7750551 27.7602364,68.571314 C27.3868036,68.2082139 27.0966564,67.4917916 27.234934,67.040413 C27.4627384,66.2972229 27.9811754,65.5914106 28.5179894,64.970479 C29.5395378,63.7887394 30.8626756,62.7848744 31.6802749,61.5061879 C32.4172239,60.3538513 32.6455137,58.9328651 33.3030605,57.0405977 Z" id="Path" fill="#FFFFFF"></path>
            </g>
            <g id="alphabet-letter-s-graffiti-by-Vexels" transform="translate(28.953200, 11.779914)">
                <path d="M12.8473093,40.4622701 C13.17408,40.1898382 13.1183785,39.6707526 12.7416412,39.4731003 C12.0664097,39.1189048 11.5105873,38.8320507 10.9764549,38.5093682 C9.40006324,37.5569921 7.70199134,36.7404344 6.30360591,35.5698516 C-1.63615492,28.9228648 -2.15938546,17.8969807 5.21086888,9.66729961 C12.4149273,1.62323335 21.7711864,-0.808383344 32.1750423,0.22416656 C34.2353726,0.42863245 36.3359601,1.31366711 38.1906888,2.30840133 C45.0552577,5.99020685 47.0273514,13.1370307 43.2302819,19.9509516 C42.910268,20.5252276 42.5925254,21.100696 42.2990848,21.6309673 C42.2129491,21.7866589 42.2020473,21.9720466 42.2671175,22.137618 C42.3391717,22.3209048 42.3876053,22.4628556 42.4781131,22.498684 C49.124816,25.1281801 51.0962283,30.7618655 51.0458642,37.0720314 C50.9426376,50.0103331 37.4200097,63.6338028 23.7778593,62.3775385 C19.9707396,62.0269769 16.2661084,61.1930445 13.02418,59.036358 C9.87094233,56.9386663 7.8644398,54.0659802 7.58956633,50.1797656 C7.35279245,46.8318851 8.63682233,44.1133575 11.1211879,41.9231706 C11.6536169,41.4538246 12.2008655,41.001172 12.8473093,40.4622701 Z M20.8817229,22.4683633 C20.5662515,22.0012317 21.034973,21.3985087 21.5704113,21.5746413 C22.2853889,21.8098821 22.8468326,21.995213 23.3991914,22.2046756 C24.8503258,22.7551039 26.2703445,23.3915543 27.7339705,23.9044509 C31.2900076,25.1505515 34.6362415,24.5428886 37.7659721,22.5768705 C44.0746618,18.6140024 44.5828456,9.92542289 38.7909135,5.28965141 C36.6932785,3.61071448 34.2806832,2.58424007 31.6434083,2.21488416 C23.9984508,1.14429145 16.9591121,2.81607407 10.6243035,7.21944375 C5.54882527,10.7474882 2.69192407,15.63826 2.06081094,21.8107906 C1.73040633,25.0424986 2.47820299,27.9734981 4.40174949,30.6029942 C7.09461238,34.2841183 10.7098714,36.6699133 15.0761635,37.7684419 C19.9040796,38.9831998 24.8145542,39.5719549 29.8033288,38.692144 C30.9460893,38.4906307 32.1218392,38.4121035 33.2827693,38.408867 C33.4372118,38.4084696 33.591711,38.4496921 33.7463238,38.5120368 C34.1977272,38.6940745 34.2499651,39.3204749 33.8345036,39.5740557 C33.2165067,39.9512473 32.6009514,40.1481614 31.9710874,40.27234 C27.4604598,41.1618603 22.9330819,41.4521212 18.3609611,40.6839404 C17.4364074,40.5285895 16.3826216,40.5065587 15.5083184,40.791312 C9.88860101,42.6214549 7.57048815,49.3213041 11.0157469,54.1189562 C12.1072915,55.6389083 13.6778917,57.0510346 15.3442801,57.8765635 C19.8935752,60.1301739 24.7627138,60.8889292 29.7929948,59.7008012 C39.2214785,57.4738775 47.767937,47.9126982 48.7113418,38.2301226 C49.194088,33.2753594 47.8568549,28.7722267 43.8783723,25.3949907 C41.7824976,23.6158366 40.7865142,23.4420888 38.3846504,24.8375784 C32.3525943,28.3421158 26.6092662,26.6299624 21.0388908,22.636944 C20.9797257,22.5945859 20.9297023,22.5393955 20.8817229,22.4683633 Z" id="Shape" fill="#000000"></path>
                <path d="M50.6325603,51.0197735 C49.0554872,56.4531947 42.2916466,61.9146086 37.2919133,61.8619165 C39.9795524,60.012298 42.4170743,58.5508296 44.5970407,56.7733221 C46.744699,55.0221606 48.6313383,52.9507014 50.6325603,51.0197735 Z" id="Path" fill="#000000"></path>
                <path d="M2.72082525,8.8922484 C2.84392495,8.36339661 3.36295375,7.53894654 3.46936005,7.39222622 C3.99412366,6.66878832 4.66191686,6.05919493 5.35338745,5.49860295 C6.33670883,4.70140742 7.37919529,3.97723137 8.46943399,3.33391048 C8.63222313,3.2378382 8.80829886,3.14045997 8.99709339,3.15079398 C9.18583113,3.161128 9.37774858,3.32908415 9.33959221,3.51424474 C9.31892418,3.6146891 9.23982921,3.69117218 9.16465208,3.76089839 C7.24337679,5.54328905 5.31869469,7.32204576 3.39066254,9.09705498 C3.2731273,9.20522146 3.14457669,9.3187253 2.98604607,9.33820094 C2.70231487,9.37312083 2.65501687,9.17490078 2.72082525,8.8922484 Z" id="Path" fill="#000000"></path>
                <path d="M21.5480966,21.5672598 C21.0199262,21.3935121 20.5676142,21.9819832 20.8691177,22.4491716 C20.9210149,22.5296293 20.9745587,22.5908384 21.0389476,22.636944 C26.6092662,26.6299624 32.3525943,28.3421158 38.3846504,24.8374081 C40.7865142,23.4419185 41.7824976,23.6156662 43.8783723,25.3948204 C47.8569117,28.7720563 49.1941447,33.275189 48.7113418,38.2299523 C47.767937,47.9125279 39.2215353,57.4737072 29.7929948,59.7006309 C24.7627705,60.8887588 19.8935752,60.1300603 15.3442801,57.8763931 C13.6778917,57.0508642 12.1072915,55.638738 11.0157469,54.1187859 C7.57043137,49.3211338 9.88860101,42.6212845 15.5083184,40.7911416 C16.3826216,40.5063884 17.4364074,40.5284191 18.3609611,40.6837701 C22.9330819,41.4519509 27.4604598,41.1616899 31.9710874,40.2721696 C32.6055506,40.1470826 33.225478,39.9481812 33.8480741,39.5655955 C34.2570626,39.314229 34.2049951,38.700661 33.7610866,38.5178852 C33.6015908,38.4521904 33.4420949,38.4082992 33.2827693,38.4086967 C32.1218392,38.4119332 30.9460893,38.4904603 29.8033288,38.6919736 C24.8145542,39.5718413 19.9040796,38.9830295 15.0761635,37.7682716 C10.7098714,36.6696862 7.09461238,34.283948 4.40174949,30.6028238 C2.47820299,27.9733277 1.73040633,25.0423282 2.06081094,21.8106202 C2.69192407,15.6380897 5.54882527,10.7473179 10.6243035,7.2192734 C16.9591121,2.81607407 23.9984508,1.14423467 31.6434083,2.21488416 C34.2806832,2.58424007 36.6932785,3.61077126 38.7909135,5.28965141 C44.5827888,9.92542289 44.0746618,18.6140024 37.7659721,22.5769273 C34.6362415,24.5429454 31.2900076,25.1506083 27.7339705,23.9045076 C26.2702877,23.3915543 24.8503258,22.7551039 23.3991914,22.2047323 C22.8410978,21.9929986 22.2737489,21.806021 21.5480966,21.5672598 Z M44.1452965,41.5054379 C44.126048,39.9111036 43.471371,38.7349563 42.3737509,38.4920502 C40.9208564,38.1704465 39.9409418,38.9511757 39.2619061,40.0984786 C38.7237424,41.0077585 38.307713,41.9957359 37.9004279,42.9749123 C36.9239202,45.3227212 35.7774122,47.5274438 33.6034645,49.0365509 C33.0589981,49.4145374 32.5341778,49.9202228 32.2097919,50.4871174 C31.9014748,51.0260193 31.5413741,51.9832785 31.7867218,52.2889837 C32.1817424,52.7811554 33.0448031,52.9237308 33.7332075,53.1408587 C33.9855392,53.2204646 34.3067454,53.1094024 34.5909876,53.0558585 C39.238683,52.1799655 44.2016794,46.1771513 44.1452965,41.5054379 Z" id="Shape" fill="#31BBDB"></path>
                <path d="M44.1452965,41.5054379 C44.1803868,44.4120219 42.5011091,47.2416685 40.5955052,49.3203956 C38.7760938,51.3050945 35.4929996,53.9593468 32.6172473,52.8188007 C32.4934095,52.7696858 32.3720132,52.7142114 32.2540805,52.6522073 C32.0928244,52.5674911 31.9330446,52.4677849 31.8264112,52.3200425 C31.4675597,51.8229309 31.9542805,50.9336945 32.2098486,50.4870606 C32.5341778,49.920166 33.0590549,49.4144238 33.6035213,49.0364941 C35.777469,47.5274438 36.9239769,45.3226645 37.9004847,42.9748555 C38.3077698,41.9956223 38.7237991,41.0077017 39.2619629,40.0984219 C39.9409418,38.951119 40.9209132,38.1703897 42.3738077,38.4919934 C43.471371,38.7349563 44.126048,39.9111036 44.1452965,41.5054379 Z M32.9059184,51.0272685 C32.6769234,51.3338253 32.9116532,51.7729075 33.2932169,51.7436656 C36.4223229,51.5037688 39.8318669,49.1880975 41.3239398,46.2965035 C42.2949398,44.4147473 43.2955224,42.4497512 42.433427,40.2643339 C42.263881,39.8345638 41.7669398,39.6374793 41.3418256,39.818211 C39.9363994,40.4155967 39.563296,41.6588015 39.0984356,42.7875373 C38.016714,45.4139104 36.6814682,47.8170802 34.2641034,49.5041935 C33.7521154,49.861512 33.3704949,50.4054673 32.9059184,51.0272685 Z" id="Shape" fill="#000000"></path>
                <path d="M33.0999935,51.7558166 C32.7935502,51.7709202 32.603904,51.4274561 32.7890646,51.1827897 C33.3083205,50.4965429 33.7098708,49.8909809 34.2640466,49.5041367 C36.6814115,47.8170234 38.0166572,45.4138536 39.0983788,42.7874805 C39.6024176,41.5635809 39.9985738,40.2051121 41.7198689,39.6813137 C41.9455706,39.6126096 42.1896692,39.7244668 42.2911356,39.9374497 C43.3947744,42.2545973 42.3430328,44.3214005 41.323883,46.2964467 C39.8010919,49.2477168 36.2808832,51.5990462 33.0999935,51.7558166 Z" id="Path" fill="#FFFFFF"></path>
            </g>
        </g>
    </g>
</svg>